<svg width="79" height="31" viewBox="0 0 79 31" fill="none" xmlns="http://www.w3.org/2000/svg">
<path d="M13.4184 4.38281H11.2409C11.2011 4.10109 11.1199 3.85085 10.9972 3.6321C10.8746 3.41004 10.7172 3.22112 10.5249 3.06534C10.3327 2.90956 10.1106 2.79025 9.85875 2.70739C9.61017 2.62453 9.34005 2.5831 9.04838 2.5831C8.5214 2.5831 8.06235 2.71402 7.67125 2.97585C7.28016 3.23437 6.97689 3.61222 6.76145 4.10938C6.54602 4.60322 6.4383 5.20312 6.4383 5.90909C6.4383 6.63494 6.54602 7.24479 6.76145 7.73864C6.9802 8.23248 7.28513 8.60535 7.67623 8.85724C8.06732 9.10914 8.51974 9.23509 9.03347 9.23509C9.32182 9.23509 9.58863 9.19697 9.8339 9.12074C10.0825 9.04451 10.3029 8.93348 10.4951 8.78764C10.6874 8.63849 10.8464 8.45786 10.9724 8.24574C11.1017 8.03362 11.1911 7.79167 11.2409 7.51989L13.4184 7.52983C13.3621 7.99716 13.2212 8.44792 12.9958 8.8821C12.7738 9.31297 12.4738 9.6991 12.096 10.0405C11.7214 10.3786 11.274 10.647 10.7536 10.8459C10.2366 11.0414 9.6516 11.1392 8.99867 11.1392C8.09052 11.1392 7.2785 10.9337 6.56259 10.5227C5.84999 10.1117 5.28655 9.51681 4.87225 8.73793C4.46126 7.95904 4.25577 7.0161 4.25577 5.90909C4.25577 4.79877 4.46458 3.85417 4.88219 3.07528C5.2998 2.2964 5.86657 1.70312 6.58248 1.29545C7.29838 0.884469 8.10378 0.678977 8.99867 0.678977C9.58863 0.678977 10.1355 0.761837 10.6393 0.927557C11.1464 1.09328 11.5955 1.33523 11.9866 1.65341C12.3777 1.96828 12.6959 2.3544 12.9411 2.81179C13.1897 3.26918 13.3488 3.79285 13.4184 4.38281ZM14.5743 2.59304V0.818182H22.9365V2.59304H19.8193V11H17.6915V2.59304H14.5743ZM24.3137 11V0.818182H28.3307C29.103 0.818182 29.7609 0.965672 30.3044 1.26065C30.848 1.55232 31.2623 1.95833 31.5473 2.47869C31.8357 2.99574 31.9798 3.59233 31.9798 4.26847C31.9798 4.9446 31.834 5.54119 31.5423 6.05824C31.2507 6.57528 30.8281 6.97798 30.2746 7.26634C29.7244 7.55469 29.0582 7.69886 28.276 7.69886H25.7156V5.97372H27.928C28.3423 5.97372 28.6837 5.90246 28.9521 5.75994C29.2239 5.61411 29.4261 5.41359 29.5587 5.15838C29.6946 4.89986 29.7625 4.60322 29.7625 4.26847C29.7625 3.9304 29.6946 3.63542 29.5587 3.38352C29.4261 3.12831 29.2239 2.93111 28.9521 2.7919C28.6804 2.64938 28.3357 2.57812 27.9181 2.57812H26.4664V11H24.3137ZM33.9573 11H31.6505L35.1654 0.818182H37.9395L41.4495 11H39.1427L36.5922 3.14489H36.5127L33.9573 11ZM33.8131 6.99787H39.262V8.67827H33.8131V6.99787ZM44.6934 0.818182L46.7467 4.28835H46.8263L48.8895 0.818182H51.3206L48.2133 5.90909L51.3902 11H48.9143L46.8263 7.52486H46.7467L44.6586 11H42.1927L45.3795 5.90909L42.2524 0.818182H44.6934ZM61.5608 5.90909C61.5608 7.01941 61.3503 7.96402 60.9294 8.7429C60.5118 9.52178 59.9417 10.1167 59.2192 10.5277C58.5 10.9354 57.6913 11.1392 56.7931 11.1392C55.8882 11.1392 55.0762 10.9337 54.357 10.5227C53.6378 10.1117 53.0693 9.51681 52.6517 8.73793C52.2341 7.95904 52.0253 7.0161 52.0253 5.90909C52.0253 4.79877 52.2341 3.85417 52.6517 3.07528C53.0693 2.2964 53.6378 1.70312 54.357 1.29545C55.0762 0.884469 55.8882 0.678977 56.7931 0.678977C57.6913 0.678977 58.5 0.884469 59.2192 1.29545C59.9417 1.70312 60.5118 2.2964 60.9294 3.07528C61.3503 3.85417 61.5608 4.79877 61.5608 5.90909ZM59.3783 5.90909C59.3783 5.18987 59.2706 4.58333 59.0551 4.08949C58.843 3.59564 58.5431 3.22112 58.1553 2.96591C57.7675 2.7107 57.3134 2.5831 56.7931 2.5831C56.2727 2.5831 55.8186 2.7107 55.4308 2.96591C55.0431 3.22112 54.7414 3.59564 54.526 4.08949C54.3139 4.58333 54.2078 5.18987 54.2078 5.90909C54.2078 6.62831 54.3139 7.23485 54.526 7.72869C54.7414 8.22254 55.0431 8.59706 55.4308 8.85227C55.8186 9.10748 56.2727 9.23509 56.7931 9.23509C57.3134 9.23509 57.7675 9.10748 58.1553 8.85227C58.5431 8.59706 58.843 8.22254 59.0551 7.72869C59.2706 7.23485 59.3783 6.62831 59.3783 5.90909ZM63.1555 11V0.818182H67.2322C67.9812 0.818182 68.606 0.929214 69.1064 1.15128C69.6069 1.37334 69.9831 1.68158 70.235 2.07599C70.4869 2.46709 70.6128 2.91785 70.6128 3.42827C70.6128 3.82599 70.5333 4.17566 70.3742 4.47727C70.2151 4.77557 69.9964 5.02083 69.718 5.21307C69.4429 5.40199 69.128 5.53622 68.7733 5.61577V5.7152C69.1611 5.73177 69.5241 5.84115 69.8621 6.04332C70.2035 6.2455 70.4803 6.52888 70.6924 6.89347C70.9045 7.25473 71.0106 7.68561 71.0106 8.18608C71.0106 8.72633 70.8763 9.20857 70.6079 9.63281C70.3427 10.0537 69.95 10.3868 69.4296 10.6321C68.9092 10.8774 68.2679 11 67.5056 11H63.1555ZM65.3081 9.24006H67.0631C67.663 9.24006 68.1005 9.12571 68.3756 8.89702C68.6507 8.66501 68.7883 8.35677 68.7883 7.9723C68.7883 7.69058 68.7203 7.442 68.5844 7.22656C68.4485 7.01113 68.2546 6.84209 68.0028 6.71946C67.7542 6.59683 67.4575 6.53551 67.1128 6.53551H65.3081V9.24006ZM65.3081 5.07884H66.904C67.199 5.07884 67.4608 5.02746 67.6895 4.92472C67.9215 4.81866 68.1038 4.66951 68.2364 4.47727C68.3723 4.28504 68.4403 4.05469 68.4403 3.78622C68.4403 3.41832 68.3093 3.12169 68.0475 2.89631C67.789 2.67093 67.4211 2.55824 66.9438 2.55824H65.3081V5.07884ZM74.564 0.818182V11H72.4113V0.818182H74.564ZM8.68794 17.8182V28H6.5601V19.5682H2.44363V28H0.315785V17.8182H8.68794ZM10.7375 28V17.8182H14.7545C15.5268 17.8182 16.1847 17.9657 16.7282 18.2607C17.2718 18.5523 17.6861 18.9583 17.9711 19.4787C18.2595 19.9957 18.4037 20.5923 18.4037 21.2685C18.4037 21.9446 18.2578 22.5412 17.9662 23.0582C17.6745 23.5753 17.2519 23.978 16.6984 24.2663C16.1482 24.5547 15.482 24.6989 14.6998 24.6989H12.1395V22.9737H14.3518C14.7661 22.9737 15.1075 22.9025 15.376 22.7599C15.6478 22.6141 15.8499 22.4136 15.9825 22.1584C16.1184 21.8999 16.1863 21.6032 16.1863 21.2685C16.1863 20.9304 16.1184 20.6354 15.9825 20.3835C15.8499 20.1283 15.6478 19.9311 15.376 19.7919C15.1042 19.6494 14.7595 19.5781 14.3419 19.5781H12.8902V28H10.7375ZM29.1585 22.9091C29.1585 24.0194 28.948 24.964 28.5271 25.7429C28.1095 26.5218 27.5394 27.1167 26.8169 27.5277C26.0976 27.9354 25.2889 28.1392 24.3907 28.1392C23.4859 28.1392 22.6739 27.9337 21.9546 27.5227C21.2354 27.1117 20.667 26.5168 20.2494 25.7379C19.8318 24.959 19.623 24.0161 19.623 22.9091C19.623 21.7988 19.8318 20.8542 20.2494 20.0753C20.667 19.2964 21.2354 18.7031 21.9546 18.2955C22.6739 17.8845 23.4859 17.679 24.3907 17.679C25.2889 17.679 26.0976 17.8845 26.8169 18.2955C27.5394 18.7031 28.1095 19.2964 28.5271 20.0753C28.948 20.8542 29.1585 21.7988 29.1585 22.9091ZM26.9759 22.9091C26.9759 22.1899 26.8682 21.5833 26.6528 21.0895C26.4407 20.5956 26.1407 20.2211 25.7529 19.9659C25.3651 19.7107 24.9111 19.5831 24.3907 19.5831C23.8704 19.5831 23.4163 19.7107 23.0285 19.9659C22.6407 20.2211 22.3391 20.5956 22.1237 21.0895C21.9115 21.5833 21.8055 22.1899 21.8055 22.9091C21.8055 23.6283 21.9115 24.2348 22.1237 24.7287C22.3391 25.2225 22.6407 25.5971 23.0285 25.8523C23.4163 26.1075 23.8704 26.2351 24.3907 26.2351C24.9111 26.2351 25.3651 26.1075 25.7529 25.8523C26.1407 25.5971 26.4407 25.2225 26.6528 24.7287C26.8682 24.2348 26.9759 23.6283 26.9759 22.9091ZM30.2013 30.456V26.2848H30.8923C31.1276 26.1158 31.3431 25.8771 31.5386 25.5689C31.7342 25.2573 31.9015 24.8281 32.0407 24.2812C32.18 23.7311 32.2794 23.0118 32.339 22.1236L32.6274 17.8182H39.3639V26.2848H40.4775V30.446H38.4094V28H32.2694V30.456H30.2013ZM33.3781 26.2848H37.2957V19.593H34.5663L34.4072 22.1236C34.3641 22.7964 34.2929 23.393 34.1934 23.9134C34.0973 24.4337 33.9797 24.8894 33.8405 25.2805C33.7046 25.6683 33.5505 26.0031 33.3781 26.2848ZM42.885 28.1392V26.3892H43.4369C43.712 26.3892 43.934 26.3561 44.1031 26.2898C44.2721 26.2202 44.4063 26.1191 44.5058 25.9865C44.6085 25.8506 44.6947 25.6816 44.7643 25.4794L44.8886 25.1463L41.1897 17.8182H43.417L45.8133 22.8295L47.8169 17.8182H50.0143L46.5044 26.0014C46.3353 26.3793 46.1348 26.7306 45.9028 27.0554C45.6741 27.3802 45.3808 27.642 45.0228 27.8409C44.6649 28.0398 44.2075 28.1392 43.6507 28.1392H42.885ZM57.3387 28L54.0674 23.6598H53.3316V28H51.1789V17.8182H53.3316V21.8849H53.7641L57.1448 17.8182H59.8245L55.8522 22.5412L60.0084 28H57.3387ZM60.7032 19.593V17.8182H69.0654V19.593H65.9482V28H63.8204V19.593H60.7032ZM70.4426 17.8182H72.5903V24.2216H72.6748L77.0747 17.8182H78.9589V28H76.8062V21.5916H76.7316L72.3069 28H70.4426V17.8182Z" fill="white"/>
</svg>
